<svg xmlns="http://www.w3.org/2000/svg" width="16" height="16" viewBox="0 0 16 16" fill="none">
  <path opacity="0.4" d="M0.833496 8.00004C0.833496 4.042 4.04212 0.833374 8.00016 0.833374C11.9582 0.833374 15.1668 4.042 15.1668 8.00004C15.1668 11.9581 11.9582 15.1667 8.00016 15.1667C4.04212 15.1667 0.833496 11.9581 0.833496 8.00004Z" fill="url(#paint0_linear_14115_151)"/>
  <path fill-rule="evenodd" clip-rule="evenodd" d="M8.00016 4.66675C8.36835 4.66675 8.66683 4.96522 8.66683 5.33341V7.72394L9.8049 8.86201C10.0652 9.12236 10.0652 9.54447 9.8049 9.80482C9.54455 10.0652 9.12244 10.0652 8.86209 9.80482L7.52876 8.47149C7.40373 8.34646 7.3335 8.17689 7.3335 8.00008V5.33341C7.3335 4.96522 7.63197 4.66675 8.00016 4.66675Z" fill="url(#paint1_linear_14115_151)"/>
  <defs>
    <linearGradient id="paint0_linear_14115_151" x1="8.00016" y1="0.833374" x2="8.00016" y2="15.1667" gradientUnits="userSpaceOnUse">
      <stop stop-color="white"/>
      <stop offset="1" stop-color="#757679"/>
    </linearGradient>
    <linearGradient id="paint1_linear_14115_151" x1="8.66683" y1="4.66675" x2="8.66683" y2="10.0001" gradientUnits="userSpaceOnUse">
      <stop stop-color="white"/>
      <stop offset="1" stop-color="#757679"/>
    </linearGradient>
  </defs>
</svg>