<svg xmlns="http://www.w3.org/2000/svg" width="18" height="18" viewBox="0 0 18 18" fill="none">
  <path fill-rule="evenodd" clip-rule="evenodd" d="M8.34192 0.875H9.65778H9.65786C9.89434 0.874998 10.0864 0.874996 10.2498 0.876472V5.25H12.7498V7.75H16.4998V5.25H17.2014C17.6126 6.10669 17.8704 7.05164 17.9397 8.04958C17.9582 8.3163 17.9582 8.62617 17.9582 9.1754V9.24126C17.9582 9.7905 17.9582 10.1004 17.9397 10.3671C17.6734 14.2036 14.6201 17.2569 10.7836 17.5232C10.5169 17.5417 10.207 17.5417 9.65777 17.5417H8.34191C7.79267 17.5417 7.4828 17.5417 7.21608 17.5232C6.19843 17.4525 5.235 17.1855 4.36408 16.7594L0.228858 17.9583L1.31584 14.0795C0.603763 13.0018 0.154865 11.7337 0.0600073 10.3671C0.0414942 10.1004 0.0414978 9.79049 0.0415041 9.24127V9.24125V9.17539V9.17538C0.0414978 8.62616 0.0414942 8.31629 0.0600073 8.04958C0.326301 4.2131 3.3796 1.1598 7.21608 0.893503C7.4828 0.87499 7.79269 0.874994 8.3419 0.875H8.34192ZM5.24984 10.875H12.7498V12.125H5.24984V10.875ZM5.24984 6.70833H9.83317V7.95833H5.24984V6.70833Z" fill="url(#paint0_linear_14115_1392)"/>
  <path fill-rule="evenodd" clip-rule="evenodd" d="M13.7915 2.54163V0.041626H15.4582V2.54163H17.9582V4.20829H15.4582V6.70829H13.7915V4.20829H11.2915V2.54163H13.7915Z" fill="url(#paint1_linear_14115_1392)"/>
  <defs>
    <linearGradient id="paint0_linear_14115_1392" x1="9.00039" y1="0.875178" x2="9.00039" y2="17.9597" gradientUnits="userSpaceOnUse">
      <stop stop-color="#EFB78F"/>
      <stop offset="1" stop-color="#E99B63"/>
    </linearGradient>
    <linearGradient id="paint1_linear_14115_1392" x1="14.625" y1="0.0416955" x2="14.625" y2="6.70881" gradientUnits="userSpaceOnUse">
      <stop stop-color="#EFB78F"/>
      <stop offset="1" stop-color="#E99B63"/>
    </linearGradient>
  </defs>
</svg>