<svg xmlns="http://www.w3.org/2000/svg" width="18" height="16" viewBox="0 0 18 16" fill="none">
  <path fill-rule="evenodd" clip-rule="evenodd" d="M0.0415039 7.47904C0.0415039 8.80223 1.08084 9.87488 2.36293 9.87488C4.07239 9.87488 5.45817 8.44468 5.45817 6.68043V3.48599C5.45817 1.72175 4.07239 0.291544 2.36293 0.291544C1.08084 0.291544 0.0415039 1.3642 0.0415039 2.68738V7.47904ZM2.36293 8.27766C1.93557 8.27766 1.58912 7.92011 1.58912 7.47904V2.68738C1.58912 2.24632 1.93557 1.88877 2.36293 1.88877C3.21766 1.88877 3.91055 2.60387 3.91055 3.48599V6.68043C3.91055 7.56255 3.21766 8.27766 2.36293 8.27766Z" fill="#FE6565"/>
  <path d="M9.66549 15.3458C10.2745 15.8758 11.2101 15.819 11.7467 15.2119C11.8411 15.0937 12.0583 14.8059 12.1722 14.6005C12.697 13.7335 12.8569 12.7009 12.6156 11.7198C12.5887 11.6101 12.5544 11.4992 12.5016 11.3287L12.2738 10.5931C12.1792 10.2876 12.122 10.1006 12.0927 9.96049C12.0709 9.88325 12.0818 9.72636 12.2997 9.71678C12.4498 9.7034 13.0378 9.70282 13.3658 9.70282H13.3658C14.3969 9.70283 15.2339 9.70285 15.8737 9.61816C16.5277 9.53158 17.1215 9.34049 17.5259 8.83364C17.6058 8.73357 17.6769 8.62695 17.7386 8.51488C18.0549 7.94014 17.9879 7.32103 17.7974 6.69784C17.6122 6.09155 17.2654 5.34488 16.8405 4.43019C16.4463 3.58125 16.0963 2.8278 15.7831 2.29933C15.459 1.75266 15.1126 1.32291 14.6337 0.996089C14.0728 0.613226 13.3249 0.412947 12.6847 0.351336C12.0639 0.291589 11.3014 0.291594 10.345 0.291601C9.19162 0.291586 7.76196 0.291573 7.03344 0.386477C6.27954 0.484684 5.64448 0.694366 5.13826 1.18485C4.62928 1.678 4.40914 2.3012 4.3065 3.04091C4.20802 3.75063 4.20803 4.65213 4.20805 5.76646L4.20803 6.7437C4.20771 7.84199 4.2075 8.5598 4.46562 9.22541C4.7231 9.8894 5.20888 10.427 5.9557 11.2535L9.46415 15.1385C9.53045 15.2121 9.59817 15.2872 9.66549 15.3458Z" fill="#FE6565"/>
</svg>