<svg xmlns="http://www.w3.org/2000/svg" width="18" height="16" viewBox="0 0 18 16" fill="none">
  <path fill-rule="evenodd" clip-rule="evenodd" d="M0.0415039 8.52096C0.0415039 7.19777 1.08084 6.12512 2.36293 6.12512C4.07239 6.12512 5.45817 7.55532 5.45817 9.31957V12.514C5.45817 14.2783 4.07239 15.7085 2.36293 15.7085C1.08084 15.7085 0.0415039 14.6358 0.0415039 13.3126V8.52096ZM2.36293 7.72234C1.93557 7.72234 1.58912 8.07989 1.58912 8.52096V13.3126C1.58912 13.7537 1.93557 14.1112 2.36293 14.1112C3.21766 14.1112 3.91055 13.3961 3.91055 12.514V9.31957C3.91055 8.43745 3.21766 7.72234 2.36293 7.72234Z" fill="#38CB89"/>
  <path d="M9.66549 0.654218C10.2745 0.124203 11.2101 0.181001 11.7467 0.788117C11.8411 0.906315 12.0583 1.19407 12.1722 1.39948C12.697 2.26647 12.8569 3.29911 12.6156 4.28024C12.5887 4.3899 12.5544 4.50076 12.5016 4.67127L12.2738 5.40687C12.1792 5.71236 12.122 5.89944 12.0927 6.03951C12.0709 6.11675 12.0818 6.27364 12.2997 6.28322C12.4498 6.2966 13.0378 6.29718 13.3658 6.29718H13.3658C14.3969 6.29717 15.2339 6.29715 15.8737 6.38184C16.5277 6.46842 17.1215 6.65951 17.5259 7.16636C17.6058 7.26643 17.6769 7.37305 17.7386 7.48512C18.0549 8.05986 17.9879 8.67897 17.7974 9.30216C17.6122 9.90845 17.2654 10.6551 16.8405 11.5698C16.4463 12.4187 16.0963 13.1722 15.7831 13.7007C15.459 14.2473 15.1126 14.6771 14.6337 15.0039C14.0728 15.3868 13.3249 15.5871 12.6847 15.6487C12.0639 15.7084 11.3014 15.7084 10.345 15.7084C9.19162 15.7084 7.76196 15.7084 7.03344 15.6135C6.27954 15.5153 5.64448 15.3056 5.13826 14.8152C4.62928 14.322 4.40914 13.6988 4.3065 12.9591C4.20802 12.2494 4.20803 11.3479 4.20805 10.2335L4.20803 9.2563C4.20771 8.15801 4.2075 7.4402 4.46562 6.77459C4.7231 6.1106 5.20888 5.573 5.9557 4.74649L9.46415 0.861482C9.53045 0.787928 9.59817 0.712801 9.66549 0.654218Z" fill="#38CB89"/>
</svg>