<svg xmlns="http://www.w3.org/2000/svg" width="16" height="14" viewBox="0 0 16 14" fill="none">
  <path fill-rule="evenodd" clip-rule="evenodd" d="M0.833008 7.41667C0.833008 6.35812 1.66448 5.5 2.69015 5.5C4.05771 5.5 5.16634 6.64416 5.16634 8.05556V10.6111C5.16634 12.0225 4.05771 13.1667 2.69015 13.1667C1.66448 13.1667 0.833008 12.3085 0.833008 11.25V7.41667ZM2.69015 6.77778C2.34826 6.77778 2.0711 7.06382 2.0711 7.41667V11.25C2.0711 11.6028 2.34826 11.8889 2.69015 11.8889C3.37393 11.8889 3.92825 11.3168 3.92825 10.6111V8.05556C3.92825 7.34986 3.37393 6.77778 2.69015 6.77778Z" fill="url(#paint0_linear_14142_1746)"/>
  <path d="M8.532 1.12335C9.01924 0.699338 9.76769 0.744777 10.197 1.23047C10.2725 1.32503 10.4463 1.55523 10.5374 1.71956C10.9572 2.41315 11.0851 3.23926 10.8921 4.02417C10.8706 4.11189 10.8431 4.20058 10.8009 4.337L10.6186 4.92548C10.543 5.16986 10.4972 5.31953 10.4738 5.43158C10.4563 5.49338 10.465 5.61889 10.6394 5.62655C10.7595 5.63725 11.2298 5.63772 11.4923 5.63772C12.3171 5.63771 12.9867 5.6377 13.4985 5.70544C14.0218 5.77471 14.4968 5.92758 14.8203 6.33306C14.8842 6.41312 14.9411 6.49842 14.9905 6.58807C15.2435 7.04786 15.1899 7.54315 15.0376 8.0417C14.8893 8.52673 14.6119 9.12407 14.272 9.85582C13.9566 10.535 13.6767 11.1377 13.4261 11.5605C13.1668 11.9978 12.8897 12.3416 12.5066 12.6031C12.0579 12.9094 11.4595 13.0696 10.9474 13.1189C10.4507 13.1667 9.84077 13.1667 9.07559 13.1667C8.1529 13.1667 7.00918 13.1667 6.42636 13.0908C5.82324 13.0122 5.31519 12.8445 4.91022 12.4521C4.50303 12.0576 4.32692 11.559 4.24481 10.9673C4.16602 10.3995 4.16604 9.67827 4.16605 8.78681L4.16603 8.00501C4.16578 7.12638 4.16561 6.55214 4.3721 6.01965C4.57809 5.48846 4.96671 5.05838 5.56417 4.39717L8.37093 1.28916C8.42397 1.23032 8.47815 1.17022 8.532 1.12335Z" fill="url(#paint1_linear_14142_1746)"/>
  <defs>
    <linearGradient id="paint0_linear_14142_1746" x1="2.99967" y1="5.5" x2="2.99967" y2="13.1667" gradientUnits="userSpaceOnUse">
      <stop stop-color="white"/>
      <stop offset="1" stop-color="#757679"/>
    </linearGradient>
    <linearGradient id="paint1_linear_14142_1746" x1="9.66604" y1="0.833374" x2="9.66604" y2="13.1667" gradientUnits="userSpaceOnUse">
      <stop stop-color="white"/>
      <stop offset="1" stop-color="#757679"/>
    </linearGradient>
  </defs>
</svg>