<svg xmlns="http://www.w3.org/2000/svg" width="18" height="18" viewBox="0 0 18 18" fill="none">
  <path fill-rule="evenodd" clip-rule="evenodd" d="M7.63483 0.679208C8.52187 0.384763 9.47781 0.384763 10.3649 0.679208C11.2482 0.972435 11.9418 1.66788 12.6386 2.645C13.3331 3.61888 14.1005 4.97676 15.0897 6.72712L15.1285 6.79584C16.1179 8.54647 16.8852 9.90429 17.3635 11.0054C17.844 12.1119 18.0833 13.0673 17.8924 13.9851C17.7001 14.9093 17.226 15.7496 16.5355 16.3848C15.8467 17.0184 14.9088 17.2857 13.7278 17.4141C12.5536 17.5417 11.0175 17.5417 9.04053 17.5417H9.04047H8.95922H8.95916C6.98216 17.5417 5.44611 17.5417 4.27186 17.4141C3.09089 17.2857 2.15299 17.0184 1.46419 16.3848C0.77369 15.7496 0.29957 14.9093 0.107298 13.9851C-0.0836641 13.0673 0.155671 12.1119 0.636216 11.0054C1.11443 9.90429 1.8818 8.54647 2.87115 6.79584L2.90999 6.72712L2.91 6.72711C3.89918 4.97675 4.66657 3.61887 5.36106 2.645C6.05786 1.66788 6.75145 0.972435 7.63483 0.679208ZM8.1665 13.1667C8.1665 12.7065 8.53793 12.3334 8.99611 12.3334H9.00356C9.46174 12.3334 9.83317 12.7065 9.83317 13.1667C9.83317 13.6269 9.46174 14 9.00356 14H8.99611C8.53793 14 8.1665 13.6269 8.1665 13.1667ZM8.1665 9.83337C8.1665 10.2936 8.5396 10.6667 8.99984 10.6667C9.46007 10.6667 9.83317 10.2936 9.83317 9.83337V6.50004C9.83317 6.0398 9.46008 5.66671 8.99984 5.66671C8.5396 5.66671 8.1665 6.0398 8.1665 6.50004V9.83337Z" fill="url(#paint0_linear_14115_2333)"/>
  <defs>
    <linearGradient id="paint0_linear_14115_2333" x1="8.99984" y1="0.458374" x2="8.99984" y2="17.5417" gradientUnits="userSpaceOnUse">
      <stop stop-color="white"/>
      <stop offset="1" stop-color="#757679"/>
    </linearGradient>
  </defs>
</svg>