<svg xmlns="http://www.w3.org/2000/svg" width="18" height="18" viewBox="0 0 18 18" fill="none">
  <path d="M8.99675 0.041626C9.87114 0.041626 10.5599 0.70207 10.9996 1.59322L12.468 4.55426C12.5125 4.6459 12.618 4.77494 12.7767 4.89299C12.9352 5.01091 13.0905 5.07597 13.1926 5.09313L15.8506 5.5384C16.8107 5.69974 17.6155 6.17037 17.8767 6.98988C18.1378 7.8087 17.7553 8.65963 17.0649 9.35133L17.0642 9.352L14.9993 11.434C14.9174 11.5165 14.8257 11.672 14.7682 11.8745C14.7111 12.0756 14.7061 12.2589 14.732 12.3773L14.7323 12.3789L15.3231 14.9544C15.5681 16.0264 15.4869 17.0894 14.7309 17.6451C13.9723 18.2027 12.9356 17.9556 11.9938 17.3946L9.50213 15.9075C9.3975 15.845 9.2178 15.7943 9.00091 15.7943C8.78561 15.7943 8.60214 15.8443 8.4907 15.9091L8.48912 15.91L6.0024 17.3943C5.06171 17.9572 4.02628 18.2 3.26759 17.6418C2.51208 17.086 2.42678 16.025 2.67259 14.9539L3.26325 12.3789L3.26361 12.3773C3.28951 12.2589 3.28444 12.0756 3.22733 11.8745C3.16983 11.672 3.07815 11.5165 2.99631 11.434L0.929875 9.35049C0.243872 8.65882 -0.137328 7.80863 0.121623 6.99101C0.381328 6.171 1.18452 5.69979 2.14528 5.53834L4.8011 5.09345L4.80194 5.09331C4.89931 5.07642 5.05225 5.01209 5.2104 4.89386C5.36884 4.77541 5.47466 4.64609 5.51927 4.55426L5.52151 4.54968L6.98802 1.59244L6.9886 1.59127C7.43247 0.700856 8.12336 0.041626 8.99675 0.041626Z" fill="url(#paint0_linear_14115_1386)"/>
  <defs>
    <linearGradient id="paint0_linear_14115_1386" x1="8.99961" y1="0.041626" x2="8.99961" y2="17.9595" gradientUnits="userSpaceOnUse">
      <stop stop-color="white"/>
      <stop offset="1" stop-color="#757679"/>
    </linearGradient>
  </defs>
</svg>